<svg xmlns="http://www.w3.org/2000/svg" xmlns:xlink="http://www.w3.org/1999/xlink" width="1080" zoomAndPan="magnify" viewBox="0 0 810 809.999993" height="1080" preserveAspectRatio="xMidYMid meet" version="1.0"><defs><g/><clipPath id="1c1a5e4589"><path d="M 333 198.195312 L 419 198.195312 L 419 397 L 333 397 Z M 333 198.195312 " clip-rule="nonzero"/></clipPath><clipPath id="371b719c9c"><path d="M 339.171875 366 L 529.878906 366 L 529.878906 456 L 339.171875 456 Z M 339.171875 366 " clip-rule="nonzero"/></clipPath><clipPath id="831a633a47"><path d="M 302.007812 268.371094 L 453.285156 268.371094 L 453.285156 458.816406 L 302.007812 458.816406 Z M 302.007812 268.371094 " clip-rule="nonzero"/></clipPath><clipPath id="0f4ffdce10"><path d="M 281 390 L 385 390 L 385 538 L 281 538 Z M 281 390 " clip-rule="nonzero"/></clipPath><clipPath id="0f38d1fcb0"><path d="M 245.398438 395.152344 L 388.878906 356.871094 L 427.164062 500.351562 L 283.683594 538.632812 Z M 245.398438 395.152344 " clip-rule="nonzero"/></clipPath><clipPath id="a4b247cec4"><path d="M 245.398438 395.152344 L 388.878906 356.871094 L 427.164062 500.351562 L 283.683594 538.632812 Z M 245.398438 395.152344 " clip-rule="nonzero"/></clipPath><clipPath id="fdeca8db5b"><path d="M 245.398438 395.152344 L 388.878906 356.871094 L 427.164062 500.351562 L 283.683594 538.632812 Z M 245.398438 395.152344 " clip-rule="nonzero"/></clipPath><clipPath id="049e8e2611"><path d="M 343 364 L 398 364 L 398 409 L 343 409 Z M 343 364 " clip-rule="nonzero"/></clipPath><clipPath id="710d5560dc"><path d="M 245.398438 395.152344 L 388.878906 356.871094 L 427.164062 500.351562 L 283.683594 538.632812 Z M 245.398438 395.152344 " clip-rule="nonzero"/></clipPath><clipPath id="0ee16edd62"><path d="M 245.398438 395.152344 L 388.878906 356.871094 L 427.164062 500.351562 L 283.683594 538.632812 Z M 245.398438 395.152344 " clip-rule="nonzero"/></clipPath><clipPath id="06a272ea2e"><path d="M 245.398438 395.152344 L 388.878906 356.871094 L 427.164062 500.351562 L 283.683594 538.632812 Z M 245.398438 395.152344 " clip-rule="nonzero"/></clipPath></defs><rect x="-81" width="972" fill="#ffffff" y="-80.999999" height="971.999992" fill-opacity="1"/><g clip-path="url(#1c1a5e4589)"><path fill="#13897d" d="M 374.582031 396.414062 C 374.582031 396.414062 280.117188 296.882812 376.355469 198.230469 C 376.355469 198.230469 471.59375 267.277344 374.582031 396.414062 " fill-opacity="1" fill-rule="nonzero"/></g><g clip-path="url(#371b719c9c)"><path fill="#13897d" d="M 418.015625 455.800781 C 395.992188 455.800781 370.003906 451.277344 339.410156 439.929688 C 339.410156 439.929688 381.894531 366.152344 459.539062 366.152344 C 480.480469 366.152344 503.960938 371.511719 529.875 385.132812 C 529.875 385.132812 505.003906 455.800781 418.015625 455.800781 " fill-opacity="1" fill-rule="nonzero"/></g><path fill="#000000" d="M 356.949219 387.535156 C 356.949219 387.535156 289.640625 388.269531 286.304688 320.746094 C 286.304688 320.746094 342.910156 309.5625 356.949219 387.535156 " fill-opacity="1" fill-rule="nonzero"/><path fill="#000000" d="M 377.4375 328.683594 C 377.4375 328.683594 317.546875 297.957031 346.066406 236.664062 C 346.066406 236.664062 401.363281 253.152344 377.4375 328.683594 " fill-opacity="1" fill-rule="nonzero"/><path fill="#000000" d="M 382.636719 403.523438 C 382.636719 403.523438 421.847656 458.234375 478.273438 420.996094 C 478.273438 420.996094 453.816406 368.734375 382.636719 403.523438 " fill-opacity="1" fill-rule="nonzero"/><path fill="#000000" d="M 414.074219 348.972656 C 414.074219 348.972656 468.617188 388.421875 510.316406 335.207031 C 510.316406 335.207031 470.542969 293.402344 414.074219 348.972656 " fill-opacity="1" fill-rule="nonzero"/><path fill="#000000" d="M 409.074219 307.660156 C 409.074219 307.660156 401.039062 240.835938 467.800781 230.1875 C 467.800781 230.1875 485.0625 285.246094 409.074219 307.660156 " fill-opacity="1" fill-rule="nonzero"/><g clip-path="url(#831a633a47)"><path fill="#000000" d="M 304.835938 449.902344 C 309.269531 447.453125 313.648438 445.066406 317.851562 442.53125 C 318.910156 441.902344 319.941406 441.25 320.960938 440.574219 L 324.035156 438.578125 L 327.035156 436.460938 L 328.535156 435.398438 C 329.03125 435.042969 329.507812 434.65625 329.996094 434.289062 L 332.910156 432.042969 C 333.863281 431.277344 334.792969 430.480469 335.738281 429.695312 L 337.152344 428.515625 C 337.621094 428.121094 338.066406 427.699219 338.523438 427.289062 L 341.257812 424.824219 C 344.796875 421.421875 348.289062 417.945312 351.480469 414.191406 C 357.984375 406.796875 363.617188 398.636719 368.488281 390.039062 C 370.847656 385.699219 373.117188 381.292969 375.011719 376.722656 C 377.011719 372.203125 378.644531 367.46875 380.445312 362.71875 C 384.003906 353.136719 388.46875 343.9375 393.191406 334.996094 C 395.558594 330.515625 397.964844 326.085938 400.40625 321.652344 C 402.859375 317.226562 405.371094 312.816406 408.113281 308.53125 C 410.847656 304.25 413.796875 300.085938 417.0625 296.175781 C 420.328125 292.265625 423.964844 288.65625 427.953125 285.488281 C 435.941406 279.121094 445.308594 275.074219 453.175781 268.707031 C 445.5625 275.378906 436.28125 279.855469 428.707031 286.40625 C 424.917969 289.667969 421.5 293.339844 418.453125 297.296875 C 415.398438 301.25 412.667969 305.453125 410.140625 309.773438 C 407.605469 314.089844 405.296875 318.546875 403.035156 323.039062 C 400.785156 327.535156 398.546875 332.0625 396.378906 336.597656 C 392.03125 345.667969 388.027344 354.828125 384.925781 364.308594 C 383.332031 369.054688 381.867188 373.933594 379.972656 378.722656 C 378.1875 383.546875 376.015625 388.21875 373.730469 392.832031 C 369.019531 401.980469 363.464844 410.738281 356.949219 418.761719 C 353.757812 422.828125 350.238281 426.628906 346.644531 430.355469 L 343.867188 433.070312 C 343.402344 433.519531 342.949219 433.984375 342.46875 434.421875 L 341.027344 435.722656 C 340.0625 436.589844 339.113281 437.46875 338.136719 438.324219 L 335.148438 440.816406 C 334.648438 441.230469 334.15625 441.65625 333.648438 442.054688 L 332.101562 443.242188 L 329.007812 445.613281 L 325.824219 447.863281 C 324.769531 448.625 323.695312 449.363281 322.609375 450.066406 C 318.285156 452.914062 313.894531 455.527344 309.59375 458.128906 C 307.347656 459.488281 304.425781 458.769531 303.066406 456.523438 C 301.707031 454.277344 302.429688 451.351562 304.675781 449.996094 C 304.722656 449.964844 304.789062 449.929688 304.835938 449.902344 " fill-opacity="1" fill-rule="nonzero"/></g><g clip-path="url(#0f4ffdce10)"><g clip-path="url(#0f38d1fcb0)"><g clip-path="url(#a4b247cec4)"><g clip-path="url(#fdeca8db5b)"><path fill="#000000" d="M 338.621094 390.773438 L 282.050781 488.515625 C 281.5625 489.359375 281.3125 490.320312 281.339844 491.292969 L 282.28125 532.015625 C 282.324219 533.867188 283.324219 535.5625 284.925781 536.484375 C 286.15625 537.195312 287.609375 537.375 288.949219 537.019531 C 289.351562 536.914062 289.742188 536.757812 290.117188 536.550781 L 325.898438 517.082031 C 326.753906 516.617188 327.464844 515.925781 327.953125 515.082031 L 384.519531 417.335938 Z M 338.621094 390.773438 " fill-opacity="1" fill-rule="nonzero"/></g></g></g></g><g clip-path="url(#049e8e2611)"><g clip-path="url(#710d5560dc)"><g clip-path="url(#0ee16edd62)"><g clip-path="url(#06a272ea2e)"><path fill="#000000" d="M 392.042969 381.304688 L 366.117188 366.300781 C 363.25 364.640625 359.734375 364.457031 356.40625 365.863281 C 353.542969 367.054688 351.050781 369.300781 349.378906 372.191406 L 343.9375 381.59375 L 389.832031 408.15625 L 395.273438 398.753906 C 396.949219 395.863281 397.652344 392.582031 397.261719 389.507812 C 396.8125 385.953125 394.910156 382.964844 392.042969 381.304688 Z M 392.042969 381.304688 " fill-opacity="1" fill-rule="nonzero"/></g></g></g></g><g fill="#000000" fill-opacity="1"><g transform="translate(239.132487, 568.84532)"><g><path d="M 28.457031 -56.914062 C 21.464844 -56.914062 15.042969 -54.390625 10.082031 -50.246094 C 3.902344 -44.960938 0 -37.15625 0 -28.457031 C 0 -12.765625 12.683594 0 28.457031 0 C 42.359375 0 52.523438 -8.617188 56.914062 -21.300781 L 55.773438 -21.300781 C 53.089844 -14.390625 47.726562 -9.59375 40.976562 -7.640625 C 28.132812 -3.984375 13.742188 -11.136719 8.292969 -23.335938 C 6.910156 -26.503906 5.933594 -30.082031 5.609375 -33.578125 C 8.535156 -25.691406 17.074219 -20.8125 25.855469 -21.789062 C 31.140625 -22.359375 37.074219 -24.308594 41.300781 -25.691406 C 43.660156 -26.421875 46.019531 -27.074219 47.5625 -26.832031 L 45.203125 -30.570312 C 42.683594 -34.636719 40.8125 -34.390625 36.34375 -32.847656 C 31.140625 -30.976562 22.765625 -28.292969 16.015625 -28.945312 C 10.8125 -29.433594 6.421875 -32.359375 5.773438 -37.804688 C 5.449219 -40.734375 6.097656 -44.472656 8.050781 -46.832031 C 10.246094 -49.433594 14.148438 -50.894531 20.40625 -50.246094 C 29.023438 -49.433594 41.628906 -46.910156 48.621094 -46.910156 C 52.683594 -46.992188 53.902344 -47.804688 55.042969 -51.382812 L 56.914062 -56.914062 C 51.464844 -53.578125 36.261719 -56.914062 28.457031 -56.914062 Z M 28.457031 -56.914062 "/></g></g></g><g fill="#000000" fill-opacity="1"><g transform="translate(303.117242, 568.84532)"><g><path d="M 18.457031 -35.609375 C 8.210938 -35.609375 0 -28.210938 0 -17.804688 C 0 -11.136719 3.660156 -5.367188 9.023438 -2.277344 C 11.625 -0.8125 14.554688 0 17.804688 0 C 26.421875 0 33.902344 -6.097656 35.609375 -14.226562 L 34.472656 -14.226562 C 33.902344 -11.382812 32.359375 -8.863281 30.246094 -7.074219 C 27.316406 -4.632812 23.902344 -3.820312 20.652344 -4.226562 C 12.277344 -5.285156 5.933594 -13.414062 5.121094 -21.464844 C 4.226562 -30.488281 11.300781 -36.503906 21.625 -33.742188 C 25.691406 -32.683594 29.433594 -30.570312 32.519531 -27.96875 L 34.554688 -32.035156 C 29.511719 -34.554688 23.335938 -35.609375 18.457031 -35.609375 Z M 18.457031 -35.609375 "/></g></g></g><g fill="#000000" fill-opacity="1"><g transform="translate(345.882149, 568.84532)"><g><path d="M 17.804688 -35.609375 C 7.96875 -35.609375 0 -27.644531 0 -17.804688 C 0 -7.96875 7.96875 0 17.804688 0 C 27.644531 0 35.609375 -7.96875 35.609375 -17.804688 C 35.609375 -27.644531 27.644531 -35.609375 17.804688 -35.609375 Z M 27.238281 -3.820312 C 22.277344 -0.488281 14.066406 -4.066406 8.863281 -11.789062 C 3.660156 -19.511719 3.414062 -28.457031 8.375 -31.789062 C 13.332031 -35.125 21.546875 -31.546875 26.75 -23.820312 C 31.953125 -16.097656 32.113281 -7.15625 27.238281 -3.820312 Z M 27.238281 -3.820312 "/></g></g></g><g fill="#000000" fill-opacity="1"><g transform="translate(388.647056, 568.84532)"><g><path d="M 12.277344 -55.367188 L 19.105469 -55.367188 L 19.105469 -8.945312 C 19.105469 -4.144531 18.375 0 18.375 0 L 28.292969 0 C 28.292969 0 27.480469 -4.144531 27.480469 -8.945312 L 27.480469 -55.367188 L 34.308594 -55.367188 C 39.105469 -55.367188 46.585938 -53.253906 46.585938 -53.253906 L 46.585938 -56.914062 L 0 -56.914062 L 0 -53.253906 C 0 -53.253906 7.480469 -55.367188 12.277344 -55.367188 Z M 12.277344 -55.367188 "/></g></g></g><g fill="#000000" fill-opacity="1"><g transform="translate(442.30643, 568.84532)"><g><path d="M 17.804688 -35.609375 C 7.96875 -35.609375 0 -27.644531 0 -17.804688 C 0 -7.96875 7.96875 0 17.804688 0 C 27.644531 0 35.609375 -7.96875 35.609375 -17.804688 C 35.609375 -27.644531 27.644531 -35.609375 17.804688 -35.609375 Z M 27.238281 -3.820312 C 22.277344 -0.488281 14.066406 -4.066406 8.863281 -11.789062 C 3.660156 -19.511719 3.414062 -28.457031 8.375 -31.789062 C 13.332031 -35.125 21.546875 -31.546875 26.75 -23.820312 C 31.953125 -16.097656 32.113281 -7.15625 27.238281 -3.820312 Z M 27.238281 -3.820312 "/></g></g></g><g fill="#000000" fill-opacity="1"><g transform="translate(485.071327, 568.84532)"><g><path d="M 7.886719 -8.945312 L 7.886719 -28.457031 C 10.488281 -29.839844 13.902344 -31.546875 17.398438 -32.765625 C 24.960938 -35.53125 28.050781 -31.953125 28.050781 -24.554688 L 28.050781 -8.945312 C 28.050781 -4.144531 27.238281 0 27.238281 0 L 35.9375 0 C 35.9375 0 35.125 -4.144531 35.125 -8.945312 L 35.125 -24.390625 C 35.125 -31.21875 33.335938 -35.609375 25.691406 -35.609375 C 19.59375 -35.609375 12.683594 -32.195312 7.886719 -29.675781 L 7.886719 -35.609375 L 0 -35.609375 C 0 -35.609375 0.8125 -31.464844 0.8125 -26.585938 L 0.8125 -8.945312 C 0.8125 -4.144531 0 0 0 0 L 8.699219 0 C 8.699219 0 7.886719 -4.144531 7.886719 -8.945312 Z M 7.886719 -8.945312 "/></g></g></g><g fill="#000000" fill-opacity="1"><g transform="translate(528.161443, 568.84532)"><g><path d="M 34.554688 -14.226562 C 33.660156 -9.511719 29.675781 -5.449219 25.042969 -4.472656 C 19.023438 -3.089844 12.4375 -6.421875 8.863281 -11.789062 C 5.449219 -16.828125 4.144531 -22.359375 5.121094 -26.585938 C 5.609375 -24.960938 6.421875 -23.496094 7.398438 -22.113281 C 10.652344 -17.644531 15.449219 -13.984375 20.8125 -13.089844 C 27.644531 -11.953125 34.714844 -15.203125 33.902344 -23.089844 C 33.660156 -26.34375 31.789062 -29.269531 29.269531 -31.382812 C 26.179688 -33.984375 22.195312 -35.609375 17.804688 -35.609375 C 7.96875 -35.609375 0 -27.644531 0 -17.804688 C 0 -7.886719 8.050781 0 17.804688 0 C 26.421875 0 33.902344 -6.097656 35.609375 -14.226562 Z M 8.375 -31.789062 C 11.871094 -34.148438 18.128906 -34.308594 22.683594 -30.734375 C 32.035156 -23.414062 25.449219 -11.625 13.253906 -18.539062 C 9.59375 -20.570312 6.828125 -23.902344 5.691406 -28.539062 C 6.339844 -29.839844 7.234375 -30.976562 8.375 -31.789062 Z M 8.375 -31.789062 "/></g></g></g></svg>